<svg width="32" height="32" viewBox="0 0 32 32" fill="none" xmlns="http://www.w3.org/2000/svg">
  <defs>
    <linearGradient id="bg-grad-fav" x1="0%" y1="0%" x2="100%" y2="100%">
      <stop offset="0%" style="stop-color:#4F46E5;stop-opacity:1" />
      <stop offset="100%" style="stop-color:#7C3AED;stop-opacity:1" />
    </linearGradient>
  </defs>
  <rect width="32" height="32" rx="8" fill="url(#bg-grad-fav)" />
  <path d="M16 7C13.7909 7 12 8.7909 12 11V14H10C9.44772 14 9 14.4477 9 15V23C9 23.5523 9.44772 24 10 24H22C22.5523 24 23 23.5523 23 23V15C23 14.4477 22.5523 14 22 14H20V11C20 8.7909 18.2091 7 16 7ZM14 11C14 9.89543 14.8954 9 16 9C17.1046 9 18 9.89543 18 11V14H14V11ZM16 17.5C16.8284 17.5 17.5 18.1716 17.5 19C17.5 19.8284 16.8284 20.5 16 20.5C15.1716 20.5 14.5 19.8284 14.5 19C14.5 18.1716 15.1716 17.5 16 17.5Z" fill="white" />
</svg>
