<svg width="40" height="40" viewBox="0 0 40 40" fill="none" xmlns="http://www.w3.org/2000/svg">
  <defs>
    <linearGradient id="bg-grad" x1="0%" y1="0%" x2="100%" y2="100%">
      <stop offset="0%" style="stop-color:#4F46E5;stop-opacity:1" />
      <stop offset="100%" style="stop-color:#7C3AED;stop-opacity:1" />
    </linearGradient>
    <filter id="shadow" x="-20%" y="-20%" width="140%" height="140%">
      <feGaussianBlur in="SourceAlpha" stdDeviation="1" />
      <feOffset dx="0" dy="1" result="offsetblur" />
      <feComponentTransfer>
        <feFuncA type="linear" slope="0.3" />
      </feComponentTransfer>
      <feMerge>
        <feMergeNode />
        <feMergeNode in="SourceGraphic" />
      </feMerge>
    </filter>
  </defs>
  <rect width="40" height="40" rx="10" fill="url(#bg-grad)" />
  <g filter="url(#shadow)">
    <path d="M20 9C16.6863 9 14 11.6863 14 15V18H12C11.4477 18 11 18.4477 11 19V29C11 29.5523 11.4477 30 12 30H28C28.5523 30 29 29.5523 29 29V19C29 18.4477 28.5523 18 28 18H26V15C26 11.6863 23.3137 9 20 9ZM16 15C16 12.7909 17.7909 11 20 11C22.2091 11 24 12.7909 24 15V18H16V15ZM20 22C20.8284 22 21.5 22.6716 21.5 23.5C21.5 24.3284 20.8284 25 20 25C19.1716 25 18.5 24.3284 18.5 23.5C18.5 22.6716 19.1716 22 20 22Z" fill="white" fill-rule="evenodd" clip-rule="evenodd"/>
    <rect x="19.5" y="25" width="1" height="2" rx="0.5" fill="white" />
  </g>
</svg>
